solid Untitled-5f2af5da
facet normal -0.7368810329911605 -0.6760224428359465 2.992889707390836e-33
  outer loop
    vertex 2041.1336713509247 -2350.8398646964047 22716.729236563602
    vertex 2185.4978671867652 -2508.2003767353044 10441.655850072986
    vertex 2185.4978671867652 -2508.2003767353044 22716.729236563602
  endloop
endfacet
facet normal -0.7368810329911605 -0.6760224428359465 2.992889707390836e-33
  outer loop
    vertex 2185.4978671867652 -2508.2003767353044 10441.655850072986
    vertex 2041.1336713509247 -2350.8398646964047 22716.729236563602
    vertex 2041.1336713509247 -2350.8398646964047 10441.655850072986
  endloop
endfacet
facet normal -0.3001464727192523 -0.9538931255199353 -6.880699811722851e-33
  outer loop
    vertex 1860.9606687388996 -2236.2054853932373 22716.729236563602
    vertex 1657.2573517287087 -2172.109382332955 10441.655850072986
    vertex 1860.9606687388996 -2236.2054853932373 10441.655850072986
  endloop
endfacet
facet normal -0.3001464727192523 -0.9538931255199353 -6.880699811722851e-33
  outer loop
    vertex 1657.2573517287087 -2172.109382332955 10441.655850072986
    vertex 1860.9606687388996 -2236.2054853932373 22716.729236563602
    vertex 1657.2573517287087 -2172.109382332955 22716.729236563602
  endloop
endfacet
facet normal -0.043033521792110056 -0.9990736289193947 4.423103422979247e-33
  outer loop
    vertex 1657.2573517287087 -2172.109382332955 22716.729236563602
    vertex 1443.9057647389677 -2162.9195990153485 10441.655850072986
    vertex 1657.2573517287087 -2172.109382332955 10441.655850072986
  endloop
endfacet
facet normal -0.043033521792110056 -0.9990736289193947 4.423103422979247e-33
  outer loop
    vertex 1443.9057647389677 -2162.9195990153485 10441.655850072986
    vertex 1657.2573517287087 -2172.109382332955 22716.729236563602
    vertex 1443.9057647389677 -2162.9195990153485 22716.729236563602
  endloop
endfacet
facet normal 0.736881032991138 0.6760224428359708 2.7234562736167355e-33
  outer loop
    vertex 845.8619148511268 -3447.394798946756 10441.655850072986
    vertex 990.2261106869546 -3604.7553109856317 22716.729236563602
    vertex 990.2261106869546 -3604.7553109856317 10441.655850072986
  endloop
endfacet
facet normal 0.736881032991138 0.6760224428359708 2.7234562736167355e-33
  outer loop
    vertex 990.2261106869546 -3604.7553109856317 22716.729236563602
    vertex 845.8619148511268 -3447.394798946756 10441.655850072986
    vertex 845.8619148511268 -3447.394798946756 22716.729236563602
  endloop
endfacet
facet normal -0.5368049375459193 -0.8437063819992839 0.0
  outer loop
    vertex 2041.1336713509247 -2350.8398646964047 22716.729236563602
    vertex 1860.9606687388996 -2236.2054853932373 10441.655850072986
    vertex 2041.1336713509247 -2350.8398646964047 10441.655850072986
  endloop
endfacet
facet normal -0.5368049375459193 -0.8437063819992839 0.0
  outer loop
    vertex 1860.9606687388996 -2236.2054853932373 10441.655850072986
    vertex 2041.1336713509247 -2350.8398646964047 22716.729236563602
    vertex 1860.9606687388996 -2236.2054853932373 22716.729236563602
  endloop
endfacet
facet normal 0.9538931255199397 -0.3001464727192392 1.8701336246662432e-19
  outer loop
    vertex 774.0877885711411 -2632.516810121087 10441.655850072986
    vertex 709.991685510866 -2836.2201271312656 22716.729236563602
    vertex 709.991685510866 -2836.2201271312656 10441.655850072986
  endloop
endfacet
facet normal 0.9538931255199397 -0.3001464727192392 1.8701336246662432e-19
  outer loop
    vertex 709.991685510866 -2836.2201271312656 22716.729236563602
    vertex 774.0877885711411 -2632.516810121087 10441.655850072986
    vertex 774.0877885711411 -2632.516810121087 22716.729236563602
  endloop
endfacet
facet normal -0.9761689155552286 -0.21701209252880144 1.810845602497796e-16
  outer loop
    vertex 2284.215074873323 -2697.563162664963 22716.729236563602
    vertex 2330.5578798446245 -2906.0234615610607 10441.655850072986
    vertex 2330.5578798446245 -2906.0234615610607 22716.729236563602
  endloop
endfacet
facet normal -0.9761689155552286 -0.21701209252880144 1.810845602497796e-16
  outer loop
    vertex 2330.5578798446245 -2906.0234615610607 10441.655850072986
    vertex 2284.215074873323 -2697.563162664963 22716.729236563602
    vertex 2322.05430858662 -2867.772496665343 10441.655850072986
  endloop
endfacet
facet normal -0.9761689155552286 -0.21701209252880144 1.810845602497796e-16
  outer loop
    vertex 2322.05430858662 -2867.772496665343 10441.655850072986
    vertex 2284.215074873323 -2697.563162664963 22716.729236563602
    vertex 2284.215074873323 -2697.563162664963 10441.655850072986
  endloop
endfacet
facet normal -0.8867399037913544 -0.4622686913734258 -2.880274472445953e-19
  outer loop
    vertex 2185.4978671867652 -2508.2003767353044 22716.729236563602
    vertex 2284.215074873323 -2697.563162664963 10441.655850072986
    vertex 2284.215074873323 -2697.563162664963 22716.729236563602
  endloop
endfacet
facet normal -0.8867399037913544 -0.4622686913734258 -2.880274472445953e-19
  outer loop
    vertex 2284.215074873323 -2697.563162664963 10441.655850072986
    vertex 2185.4978671867652 -2508.2003767353044 22716.729236563602
    vertex 2185.4978671867652 -2508.2003767353044 10441.655850072986
  endloop
endfacet
facet normal 0.9761689155552248 0.2170120925288183 -1.921513893486118e-33
  outer loop
    vertex 700.8019021932678 -3049.5717141209834 10441.655850072986
    vertex 747.1447071645766 -3258.032013017103 22716.729236563602
    vertex 747.1447071645766 -3258.032013017103 10441.655850072986
  endloop
endfacet
facet normal 0.9761689155552248 0.2170120925288183 -1.921513893486118e-33
  outer loop
    vertex 747.1447071645766 -3258.032013017103 22716.729236563602
    vertex 700.8019021932678 -3049.5717141209834 10441.655850072986
    vertex 700.8019021932678 -3049.5717141209834 22716.729236563602
  endloop
endfacet
facet normal 0.999073628919396 -0.04303352179207488 2.2115517114896267e-33
  outer loop
    vertex 709.991685510866 -2836.2201271312656 10441.655850072986
    vertex 700.8019021932678 -3049.5717141209834 22716.729236563602
    vertex 700.8019021932678 -3049.5717141209834 10441.655850072986
  endloop
endfacet
facet normal 0.999073628919396 -0.04303352179207488 2.2115517114896267e-33
  outer loop
    vertex 700.8019021932678 -3049.5717141209834 22716.729236563602
    vertex 709.991685510866 -2836.2201271312656 10441.655850072986
    vertex 709.991685510866 -2836.2201271312656 22716.729236563602
  endloop
endfacet
facet normal -0.8437063819992491 0.5368049375459741 4.7530906391751475e-33
  outer loop
    vertex 2257.2719934667334 -3323.07836556097 22716.729236563602
    vertex 2142.6376141635387 -3503.2513681730115 10441.655850072986
    vertex 2142.6376141635387 -3503.2513681730115 22716.729236563602
  endloop
endfacet
facet normal -0.8437063819992491 0.5368049375459741 4.7530906391751475e-33
  outer loop
    vertex 2142.6376141635387 -3503.2513681730115 10441.655850072986
    vertex 2257.2719934667334 -3323.07836556097 22716.729236563602
    vertex 2257.2719934667334 -3323.07836556097 10441.655850072986
  endloop
endfacet
facet normal -0.4622686913733244 0.8867399037914074 -2.8802744724453006e-19
  outer loop
    vertex 1795.9143161950121 -3746.3327716953863 22716.729236563602
    vertex 1985.2771021246706 -3647.615564008856 10441.655850072986
    vertex 1795.9143161950121 -3746.3327716953863 10441.655850072986
  endloop
endfacet
facet normal -0.4622686913733244 0.8867399037914074 -2.8802744724453006e-19
  outer loop
    vertex 1985.2771021246706 -3647.615564008856 10441.655850072986
    vertex 1795.9143161950121 -3746.3327716953863 22716.729236563602
    vertex 1985.2771021246706 -3647.615564008856 22716.729236563602
  endloop
endfacet
facet normal -0.21701209252893702 0.9761689155551986 -8.643399138596402e-33
  outer loop
    vertex 1587.454017298912 -3792.6755766667175 22716.729236563602
    vertex 1795.9143161950121 -3746.3327716953863 10441.655850072986
    vertex 1587.454017298912 -3792.6755766667175 10441.655850072986
  endloop
endfacet
facet normal -0.21701209252893702 0.9761689155551986 -8.643399138596402e-33
  outer loop
    vertex 1795.9143161950121 -3746.3327716953863 10441.655850072986
    vertex 1587.454017298912 -3792.6755766667175 22716.729236563602
    vertex 1795.9143161950121 -3746.3327716953863 22716.729236563602
  endloop
endfacet
facet normal -0.9990736289193924 0.043033521792159656 -1.931600559110541e-17
  outer loop
    vertex 2330.5578798446245 -2906.0234615610607 22716.729236563602
    vertex 2321.368096527008 -3119.3750485507785 10441.655850072986
    vertex 2321.368096527008 -3119.3750485507785 22716.729236563602
  endloop
endfacet
facet normal -0.9990736289193924 0.043033521792159656 -1.931600559110541e-17
  outer loop
    vertex 2321.368096527008 -3119.3750485507785 10441.655850072986
    vertex 2330.5578798446245 -2906.0234615610607 22716.729236563602
    vertex 2322.05430858662 -3103.443831581942 10441.655850072986
  endloop
endfacet
facet normal -0.9990736289193924 0.043033521792159656 -1.931600559110541e-17
  outer loop
    vertex 2322.05430858662 -3103.443831581942 10441.655850072986
    vertex 2330.5578798446245 -2906.0234615610607 22716.729236563602
    vertex 2330.5578798446245 -2906.0234615610607 10441.655850072986
  endloop
endfacet
facet normal 0.5368049375459194 0.8437063819992839 1.1882726597936656e-33
  outer loop
    vertex 990.2261106869546 -3604.7553109856317 22716.729236563602
    vertex 1170.399113298997 -3719.38969028881 10441.655850072986
    vertex 990.2261106869546 -3604.7553109856317 10441.655850072986
  endloop
endfacet
facet normal 0.5368049375459194 0.8437063819992839 1.1882726597936656e-33
  outer loop
    vertex 1170.399113298997 -3719.38969028881 10441.655850072986
    vertex 990.2261106869546 -3604.7553109856317 22716.729236563602
    vertex 1170.399113298997 -3719.38969028881 22716.729236563602
  endloop
endfacet
facet normal -0.9538931255199454 0.30014647271922035 -6.880699811722613e-33
  outer loop
    vertex 2321.368096527008 -3119.3750485507785 22716.729236563602
    vertex 2257.2719934667334 -3323.07836556097 10441.655850072986
    vertex 2257.2719934667334 -3323.07836556097 22716.729236563602
  endloop
endfacet
facet normal -0.9538931255199454 0.30014647271922035 -6.880699811722613e-33
  outer loop
    vertex 2257.2719934667334 -3323.07836556097 10441.655850072986
    vertex 2321.368096527008 -3119.3750485507785 22716.729236563602
    vertex 2321.368096527008 -3119.3750485507785 10441.655850072986
  endloop
endfacet
facet normal 0.30014647271932987 0.9538931255199111 -1.8701336246669045e-19
  outer loop
    vertex 1170.399113298997 -3719.38969028881 22716.729236563602
    vertex 1374.1024303091642 -3783.4857933491026 10441.655850072986
    vertex 1170.399113298997 -3719.38969028881 10441.655850072986
  endloop
endfacet
facet normal 0.30014647271932987 0.9538931255199111 -1.8701336246669045e-19
  outer loop
    vertex 1374.1024303091642 -3783.4857933491026 10441.655850072986
    vertex 1170.399113298997 -3719.38969028881 22716.729236563602
    vertex 1374.1024303091642 -3783.4857933491026 22716.729236563602
  endloop
endfacet
facet normal 0.0430335217921451 0.9990736289193931 -0.0
  outer loop
    vertex 1374.1024303091642 -3783.4857933491026 22716.729236563602
    vertex 1587.454017298912 -3792.6755766667175 10441.655850072986
    vertex 1374.1024303091642 -3783.4857933491026 10441.655850072986
  endloop
endfacet
facet normal 0.0430335217921451 0.9990736289193931 -0.0
  outer loop
    vertex 1587.454017298912 -3792.6755766667175 10441.655850072986
    vertex 1374.1024303091642 -3783.4857933491026 22716.729236563602
    vertex 1587.454017298912 -3792.6755766667175 22716.729236563602
  endloop
endfacet
facet normal -0.6760224428360294 0.7368810329910842 -2.9928897073912033e-33
  outer loop
    vertex 1985.2771021246706 -3647.615564008856 22716.729236563602
    vertex 2142.6376141635387 -3503.2513681730115 10441.655850072986
    vertex 1985.2771021246706 -3647.615564008856 10441.655850072986
  endloop
endfacet
facet normal -0.6760224428360294 0.7368810329910842 -2.9928897073912033e-33
  outer loop
    vertex 2142.6376141635387 -3503.2513681730115 10441.655850072986
    vertex 1985.2771021246706 -3647.615564008856 22716.729236563602
    vertex 2142.6376141635387 -3503.2513681730115 22716.729236563602
  endloop
endfacet
facet normal 0.462268691373443 -0.8867399037913455 2.7625214039492447e-19
  outer loop
    vertex 1235.445465842868 -2209.26240398664 22716.729236563602
    vertex 1046.0826799132187 -2307.9796116731977 10441.655850072986
    vertex 1235.445465842868 -2209.26240398664 10441.655850072986
  endloop
endfacet
facet normal 0.462268691373443 -0.8867399037913455 2.7625214039492447e-19
  outer loop
    vertex 1046.0826799132187 -2307.9796116731977 10441.655850072986
    vertex 1235.445465842868 -2209.26240398664 22716.729236563602
    vertex 1046.0826799132187 -2307.9796116731977 22716.729236563602
  endloop
endfacet
facet normal 0.6760224428360156 -0.7368810329910969 0.0
  outer loop
    vertex 1046.0826799132187 -2307.9796116731977 22716.729236563602
    vertex 888.7221678743358 -2452.3438075090503 10441.655850072986
    vertex 1046.0826799132187 -2307.9796116731977 10441.655850072986
  endloop
endfacet
facet normal 0.6760224428360156 -0.7368810329910969 0.0
  outer loop
    vertex 888.7221678743358 -2452.3438075090503 10441.655850072986
    vertex 1046.0826799132187 -2307.9796116731977 22716.729236563602
    vertex 888.7221678743358 -2452.3438075090503 22716.729236563602
  endloop
endfacet
facet normal 0.8867399037913636 0.46226869137340826 -2.8802744724458433e-19
  outer loop
    vertex 747.1447071645766 -3258.032013017103 10441.655850072986
    vertex 845.8619148511268 -3447.394798946756 22716.729236563602
    vertex 845.8619148511268 -3447.394798946756 10441.655850072986
  endloop
endfacet
facet normal 0.8867399037913636 0.46226869137340826 -2.8802744724458433e-19
  outer loop
    vertex 845.8619148511268 -3447.394798946756 22716.729236563602
    vertex 747.1447071645766 -3258.032013017103 10441.655850072986
    vertex 747.1447071645766 -3258.032013017103 22716.729236563602
  endloop
endfacet
facet normal 0.21701209252876086 -0.9761689155552377 1.3521451960452076e-19
  outer loop
    vertex 1443.9057647389677 -2162.9195990153485 22716.729236563602
    vertex 1235.445465842868 -2209.26240398664 10441.655850072986
    vertex 1443.9057647389677 -2162.9195990153485 10441.655850072986
  endloop
endfacet
facet normal 0.21701209252876086 -0.9761689155552377 1.3521451960452076e-19
  outer loop
    vertex 1235.445465842868 -2209.26240398664 10441.655850072986
    vertex 1443.9057647389677 -2162.9195990153485 22716.729236563602
    vertex 1235.445465842868 -2209.26240398664 22716.729236563602
  endloop
endfacet
facet normal 0.8437063819992421 -0.5368049375459851 -2.6284561334795703e-19
  outer loop
    vertex 888.7221678743358 -2452.3438075090503 10441.655850072986
    vertex 774.0877885711411 -2632.516810121087 22716.729236563602
    vertex 774.0877885711411 -2632.516810121087 10441.655850072986
  endloop
endfacet
facet normal 0.8437063819992421 -0.5368049375459851 -2.6284561334795703e-19
  outer loop
    vertex 774.0877885711411 -2632.516810121087 22716.729236563602
    vertex 888.7221678743358 -2452.3438075090503 10441.655850072986
    vertex 888.7221678743358 -2452.3438075090503 22716.729236563602
  endloop
endfacet
endsolid Untitled-5f2af5da
